# AST/ASF file generated using VICON BodyLanguage
# -----------------------------------------------
:version 1.10
:name VICON
:units
  mass 1.0
  length 0.45
  angle deg
:documentation
   .ast/.asf automatically generated from VICON data using
   VICON BodyBuilder and BodyLanguage model FoxedUp or BRILLIANT.MOD
:root
   order TX TY TZ RX RY RZ
   axis XYZ
   position 0 0 0  
   orientation 0 0 0 
:bonedata
  begin
     id 1 
     name lhipjoint
     direction 0.543289 -0.788407 0.288535 
     length 2.57127 
     axis 0 0 0  XYZ
  end
  begin
     id 2 
     name lfemur
     direction 0.34202 -0.939693 0  
     length 8.47298  
     axis 0 0 20  XYZ
    dof rx ry rz
    limits (-160.0 20.0)
           (-70.0 70.0)
           (-60.0 70.0)
  end
  begin
     id 3 
     name ltibia
     direction 0.34202 -0.939693 0   
     length 8.13367   
     axis 0 0 20   XYZ
    dof rx
    limits (-10.0 170.0)
  end
  begin
     id 4 
     name lfoot
     direction 0.114037 -0.313314 0.942778   
     length 2.67113   
     axis -90 7.62852e-016 20   XYZ
    dof rx rz
    limits (-45.0 90.0)
           (-70.0 20.0)
  end
  begin
     id 5 
     name ltoes
     direction 1.536e-011 -4.21847e-011 1   
     length 1.32217   
     axis -90 7.62852e-016 20   XYZ
    dof rx
    limits (-90.0 20.0)
  end
  begin
     id 6 
     name rhipjoint
     direction -0.571293 -0.770752 0.282074   
     length 2.63017  
     axis 0 0 0  XYZ 
  end
  begin
     id 7 
     name rfemur
     direction -0.34202 -0.939693 0   
     length 8.60885   
     axis 0 0 -20   XYZ
    dof rx ry rz
    limits (-160.0 20.0)
           (-70.0 70.0)
           (-70.0 60.0)
  end
  begin
     id 8 
     name rtibia
     direction -0.34202 -0.939693 0   
     length 8.07673   
     axis 0 0 -20   XYZ
    dof rx
    limits (-10.0 170.0)
 end
 begin
     id 9 
     name rfoot
     direction -0.121336 -0.333368 0.934956   
     length 2.81602  
     axis -90 -7.62852e-016 -20   XYZ
    dof rx rz
    limits (-45.0 90.0)
           (-20.0 70.0)
  end
  begin
     id 10 
     name rtoes
     direction -1.53491e-011 -4.21808e-011 1   
     length 1.38905   
     axis -90 -7.62852e-016 -20   XYZ
    dof rx
    limits (-90.0 20.0)
  end
  begin
     id 11 
     name lowerback
     direction 0.0136776 0.999869 -0.00861835   
     length 2.14087   
     axis 0 0 0   XYZ
    dof rx ry rz
    limits (-20.0 45.0)
           (-30.0 30.0)
           (-30.0 30.0)
  end
  begin
     id 12 
     name upperback
     direction -0.00789158 0.999804 0.0181308   
     length 2.14151   
     axis 0 0 0   XYZ
    dof rx ry rz
    limits (-20.0 45.0)
           (-30.0 30.0)
           (-30.0 30.0)
  end
  begin
     id 13 
     name thorax
     direction -0.0135231 0.999666 0.0220247   
     length 2.13644   
     axis 0 0 0   XYZ
    dof rx ry rz
    limits (-20.0 45.0)
           (-30.0 30.0)
           (-30.0 30.0)
  end
  begin
     id 14 
     name lowerneck
     direction -0.0392259 0.997317 0.0618018   
     length 1.65045   
     axis 0 0 0   XYZ
    dof rx ry rz
    limits (-20.0 45.0)
           (-30.0 30.0)
           (-30.0 30.0)
  end
  begin
     id 15 
     name upperneck
     direction 0.0765547 0.994276 -0.0745319   
     length 1.66045   
     axis 0 0 0   XYZ
    dof rx ry rz
    limits (-20.0 45.0)
           (-30.0 30.0)
           (-30.0 30.0)
  end
  begin
     id 16
     name head
     direction 0.0241564 0.999031 -0.036785  
     length 1.66594  
     axis 0 0 0   XYZ
    dof rx ry rz
    limits (-20.0 45.0)
           (-30.0 30.0)
           (-30.0 30.0)
  end
  begin
     id 17 
     name lclavicle
     direction 0.967398 0.249018 0.0461573  
     length 3.75176  
     axis 0 0 0   XYZ
    dof ry rz
    limits (-20.0 10.0)
           (0.0 20.0)
  end
  begin
     id 18 
     name lhumerus
     direction 1 -4.48963e-011 -3.05005e-027   
     length 5.93342   
     axis 180 -30 -90   XYZ
    dof rx ry rz
    limits (-60.0 90.0)
           (-90.0 90.0)
           (-90.0 90.0)
  end
  begin
     id 19
     name lradius
     direction 1 -4.48957e-011 1.07006e-026   
     length 3.94763   
     axis 180 -30 -90   XYZ
    dof rx
    limits (-10.0 170.0)
  end
  begin
     id 20
     name lwrist
     direction 1 -4.48978e-011 1.92422e-026   
     length 1.97382   
     axis -1.18182e-014 90 90   XYZ
    dof ry
    limits (-180.0 0.0)
 end
  begin
     id 21 
     name lhand
     direction 1 -4.48931e-011 3.84844e-026   
     length 0.560187   
     axis -2.45563e-014 90 90   XYZ
    dof rx rz
    limits (-90.0 90.0)
           (-45.0 45.0)
  end
  begin
     id 22 
     name lfingers
     direction 1 -4.48952e-011 7.69687e-026   
     length 0.451637   
     axis -4.91126e-014 90 90   XYZ
    dof rx
    limits (0.0 90.0)
  end
  begin
     id 23
     name lthumb
     direction 0.707107 -6.34901e-011 0.707107   
     length 0.648463   
     axis -90 45 2.85299e-015   XYZ
    dof rx rz
    limits (-45.0 45.0)
           (-45.0 45.0)
  end
  begin
     id 24 
     name rclavicle
     direction -0.965946 0.258716 0.00371831   
     length 3.63667  
     axis 0 0 0   XYZ 
    dof ry rz
    limits (-10.0 20.0)
           (-20.0 0.0)
  end
  begin
     id 25 
     name rhumerus
     direction -1 -4.48966e-011 -1.78361e-028  
     length 6.28647   
     axis 180 30 90   XYZ
    dof rx ry rz
    limits (-90.0 60.0)
           (-90.0 90.0)
           (-90.0 90.0)
  end
  begin
     id 26 
     name rradius
     direction -1 -4.48961e-011 1.05248e-026   
     length 3.81645   
     axis 180 30 90   XYZ
    dof rx
    limits (-10.0 170.0)
  end
  begin
     id 27 
     name rwrist
     direction -1 -4.48979e-011 1.92422e-026   
     length 1.90822   
     axis -1.18182e-014 -90 -90   XYZ
    dof ry
    limits (-180.0 0.0)
  end
  begin
     id 28
     name rhand
     direction -1 -4.48937e-011 3.84844e-026   
     length 0.646185   
     axis -2.45563e-014 -90 -90   XYZ
    dof rx rz
    limits (-90.0 90.0)
           (-45.0 45.0)
  end
  begin
     id 29
     name rfingers
     direction -1 -4.48953e-011 7.69687e-026   
     length 0.520971   
     axis -4.91126e-014 -90 -90   XYZ
    dof rx
    limits (0.0 90.0)
  end
  begin
     id 30
     name rthumb
     direction -0.707107 -6.3494e-011 0.707107   
     length 0.748013   
     axis -90 -45 -2.85299e-015   XYZ
    dof rx rz
    limits (-45.0 45.0)
           (-45.0 45.0)
  end
:hierarchy
  begin
    root lhipjoint rhipjoint lowerback
    lhipjoint lfemur
    lfemur ltibia
    ltibia lfoot
    lfoot ltoes
    rhipjoint rfemur
    rfemur rtibia
    rtibia rfoot
    rfoot rtoes
    lowerback upperback
    upperback thorax
    thorax lowerneck lclavicle rclavicle
    lowerneck upperneck
    upperneck head
    lclavicle lhumerus
    lhumerus lradius
    lradius lwrist
    lwrist lhand lthumb
    lhand lfingers
    rclavicle rhumerus
    rhumerus rradius
    rradius rwrist
    rwrist rhand rthumb
    rhand rfingers
  end

#!OML:ASF H:\HAZMAT1\Patient Classification 1\Patient 3\Session 1\dancer.ASF
:FULLY-SPECIFIED
:DEGREES
133
upperback -2.141970 -1.880900 -0.499541
rfoot -10.738100 -25.988300
lradius 39.782398
lthumb 6.878260 -308.852997
rradius 37.393902
lwrist -5.231030
rhand -18.904301 -18.228001
rhumerus -51.046799 -4.067070 -82.913399
lowerneck -3.203070 0.034806 1.729850
lhand -19.442200 381.278992
ltibia 34.055000
head 1.621610 0.022351 0.465499
rwrist 9.617530
lfingers 7.125020
rtoes 8.825740
lowerback -0.808879 -1.429810 5.940160
rfingers 7.125020
lclavicle -0.000000 0.000000
upperneck 3.487380 -0.118217 2.439060
rfemur -13.806900 -0.879418 8.633450
thorax -1.967100 -1.043080 -3.824830
rclavicle -0.000000 0.000000
rtibia 41.447498
lfoot -20.612900 9.954870
lhumerus -38.132900 5.595850 69.728500
rthumb 7.397560 671.921021
root 21.614401 19.087400 23.647600 -909.440002 -256.415985 159.955002
ltoes 4.591880
lfemur -20.093000 -24.760099 -10.973200
134
upperback -2.430160 -2.757900 -0.791686
rfoot -5.751150 -29.163200
lradius 28.651899
lthumb 7.948730 -308.563995
rradius 40.077499
lwrist -10.784200
rhand -20.947800 -19.183701
rhumerus -49.978001 -1.834380 -83.322800
lowerneck -3.325260 -1.013130 0.918866
lhand -18.333200 381.605011
ltibia 28.398100
head 1.669420 -0.660978 0.919763
rwrist 9.984280
lfingers 7.125020
rtoes 16.913900
lowerback -1.345900 -2.069660 4.734280
rfingers 7.125020
lclavicle -0.000000 -0.000000
upperneck 3.483030 -1.521100 3.557460
rfemur -19.566900 19.580099 -0.347343
thorax -2.013000 -1.467900 -3.449080
rclavicle -0.000000 -0.000000
rtibia 26.310200
lfoot -22.438900 9.811600
lhumerus -37.068600 7.467700 69.106499
rthumb 5.424710 670.906006
root 22.454201 19.078600 25.041700 -923.346985 -262.457001 146.022995
ltoes -3.130940
lfemur -14.567900 -27.712999 -7.931370
135
upperback -2.112300 -4.136220 -1.421530
rfoot -13.560700 -22.687599
lradius 20.046000
lthumb 9.023800 -307.502014
rradius 38.230000
lwrist -19.128099
rhand -19.027599 -19.425400
rhumerus -51.512798 -1.944790 -86.138199
lowerneck -3.463580 -0.601569 0.761467
lhand -17.219200 382.710999
ltibia 26.262800
head 1.852310 -0.397463 0.426484
rwrist 6.837050
lfingers 7.125020
rtoes -10.982900
lowerback -1.048140 -3.099870 3.674130
rfingers 7.125020
lclavicle -0.000000 -0.000000
upperneck 4.043710 -0.917854 1.851390
rfemur -16.117399 17.021000 3.930740
thorax -1.952820 -2.139340 -3.477070
rclavicle -0.000000 -0.000000
rtibia 28.101200
lfoot -20.238800 8.502320
lhumerus -39.463200 12.794700 65.486397
rthumb 7.278540 670.719971
root 23.056299 18.845900 27.333401 -942.260010 -267.960999 129.298996
ltoes -10.173100
lfemur -9.489530 -30.952600 -4.763300
136
upperback -2.393760 -4.582050 -1.295940
rfoot -21.567200 -26.553301
lradius 27.298401
lthumb 8.807140 -308.523987
rradius 35.997002
lwrist -12.456800
rhand -15.387400 -18.428400
rhumerus -52.088402 0.691653 -86.028397
lowerneck -3.204510 0.242751 0.511875
lhand -17.443701 381.679993
ltibia 28.297199
head 1.504020 0.157231 -0.536734
rwrist 8.794490
lfingers 7.125020
rtoes 1.660170
lowerback -1.679080 -3.421940 4.332750
rfingers 7.125020
lclavicle 0.000000 0.000000
upperneck 3.106820 0.357940 -1.477850
rfemur -13.307700 15.960400 11.211000
thorax -1.974070 -2.376900 -3.735900
rclavicle 0.000000 0.000000
rtibia 26.790600
lfoot -7.025250 12.887800
lhumerus -41.322201 8.367460 74.931801
rthumb 10.791100 671.869019
root 23.370399 19.032301 29.808599 -1097.969971 -268.221008 -26.995600
ltoes -18.129200
lfemur -12.409200 -28.270399 0.511160
137
upperback -2.489120 -4.954570 -1.751650
rfoot -22.773500 -25.422701
lradius 37.338100
lthumb 14.005900 -316.059998
rradius 37.033199
lwrist -14.214000
rhand -17.754801 -19.833200
rhumerus -51.612598 -1.312110 -81.080902
lowerneck -2.677880 1.455370 1.147040
lhand -12.053100 374.431000
ltibia 29.981001
head 0.834316 0.956410 -1.136150
rwrist 8.025390
lfingers 7.125020
rtoes 6.920840
lowerback -1.922030 -3.694160 4.034200
rfingers 7.125020
lclavicle 0.000000 -0.000000
upperneck 1.110530 1.967120 -3.160580
rfemur -14.096400 14.886300 13.468900
thorax -1.988960 -2.564640 -4.046630
rclavicle 0.000000 -0.000000
rtibia 26.728201
lfoot 0.796953 15.821700
lhumerus -41.788799 -2.560190 87.261101
rthumb 8.506940 670.357971
root 23.386101 19.228300 31.433001 -1131.510010 -266.042999 -61.335899
ltoes -20.630501
lfemur -16.777100 -26.038500 2.311440
